<?xml version="1.0" encoding="UTF-8"?>
<svg id="Layer_1" data-name="Layer 1" xmlns="http://www.w3.org/2000/svg" viewBox="0 0 2776.39 1120.69">

  <defs>
    <style>
      .cls-1 {
        fill: #95620aff;
        stroke: none;
      }
    </style>
  </defs>

  <path class="cls-1"   d="M2207.97,2.49c3.16,2.52,6.43,60.1,13.36,71.64,4.5,7.5,30.1,12.54,39.89,16.11,14.63,5.32,38.02,21.39,50.96,9.03,4.22-5.92,30.26-45.79,33.34-46.8,5.79-1.91,27.83,15.33,33.61,19.86,10.79,8.45,19.82,19.05,31.19,26.8l1.92,4.24c-.61,19.88-20.24,57.66-15.57,75.43,2.08,7.91,20.33,25.67,26.34,33.64,5.2,6.89,20.8,33.68,26.58,35.41,16.26,4.84,43.93-18.41,55.17-15.31,9.24,2.55,35.87,74.52,40.97,87.07.79,8.7-41.36,42.5-40.65,56.56l20.2,94.01c9.38,9.79,46,15.12,53.01,22.99,5.02,5.63,6.1,49.91,5.98,60.19-.05,4.23-1.81,7.98-2.06,11.94-.52,8.21,1.96,24.16-1.88,30.12-6,9.31-49.28,13.12-55.69,26.31-4.99,20.85-8.34,42.05-13.03,62.97-1.68,7.47-6.66,17.98-7.33,24.81-1.96,19.92,33.33,45.85,41.57,64.2.88,5.7-11.64,35.06-14.72,42.51-2.91,7.03-19.25,44.72-24.19,45.69-16.12-2.31-36.17-17.93-50.76-20.75-3.56-.69-5.15.04-7.92,2.18-4.83,3.72-17.53,27.1-23.28,34.75-9.61,12.78-20.88,24.63-31.83,36.27l14.09,75.89c-10.69,10.55-49.18,50.57-62.42,51.72-7.45.64-35.23-49.17-44.03-55.36-7.7-2.33-18.45,6.38-26.07,9.22-16.76,6.23-33.86,11.85-51.19,16.32-4.48,2.83-10.87,58.37-13.92,68.57-1.59,5.31-1.96,10.35-8.45,11.55-11.55,2.15-34.13,2.81-46.05,2.12-4.81-.28-23.16-2.38-25.07-5.42l-17.17-76.83c-14.62-3.94-29.03-9.01-43.21-14.3-9.4-3.51-24.82-14.13-34.05-11.55-4.31,1.2-33.02,52.47-43.5,55.19-9.09-4.51-17.65-10.29-25.74-16.33-6.87-5.12-32.79-26.14-35.91-32.08-4.24-8.08,3.02-39.39,10.24-43.25,9.34-5,29.67-8.29,42.21-13.79,14.85-6.5,27.54-16.21,41.97-23.32,93.01,62.77,195.96,63.41,288.75.05,134.32-91.71,184.44-265.04,170.53-421.42-1.98-22.23-10.67-42.8-1.99-65.02-4.09.77-5.07,2.82-7.74-1.14-1.77-2.63-9.17-26.42-9.78-30.36-3.21-20.78,2.86-34.38-5.44-60.53-11.09-34.95-26.99-34.73-48.05-57.95-8.26-9.11-14.99-21.49-23.03-30.97-187.82-221.42-440.96-94.5-512.94,150.95-41.67,142.1-24.49,301.56,58.94,425.05,16.12,23.86,35.26,42.49,54.04,63.97l-49.39,20.68-50.49-64.62c-7.99-2.99-44.02,20.48-54.98,18.99-6.61-.9-14.53-20.29-17.46-26.72-3.78-8.32-22.47-55-21.72-60.24,7.58-15.88,42.81-45.57,41.97-61.82-.51-9.98-8.52-29.6-10.92-41.27-2.37-11.52-4.84-43.09-9.19-50.81-4.93-8.75-40.07-13.76-50.36-19.64-6.48-3.7-6.89-9.78-7.51-16.49-1.76-19.02-1.58-54.99,0-74.15.39-4.69,1.4-13.93,4.93-17.07,7.59-6.74,36.15-10.83,46.56-17.44,1.64-1.04,3.38-1.78,4.65-3.35,4.74-5.88,11.82-53.58,14.51-65.49,4.09-18.1,13.93-25.32,1.09-44.25-7.54-11.12-25.11-24.9-31.81-36.23-4.66-7.89,5.62-28.16,9.2-37.03,3.89-9.64,22.03-51.8,27.86-56.25,1.17-.89,2.01-1.96,3.69-1.5,13.58,3.92,39.8,22.39,53.34,16.63l51.12-66.86c1.76-5.49,1.08-11.02.4-16.59-2.06-16.69-14.74-44.17-14.93-58.88-.04-3.17,1.41-5.39,3.42-7.65,6.87-7.75,29.09-25.25,38.2-31.8,4.35-3.13,18.5-13.22,22.88-13.12,9.55.21,30.09,50.37,45.88,52.09,3.66.4,7.61-.01,11.13-1.09,12.25-11.1,57.37-17.07,66.04-25.95,10.52-10.78,11.51-58.93,15.97-75.03,25.01-3.29,50.68-3,75.71.15Z"/>
  <path class="cls-1"   d="M2336.18,464.27l-10.5,45.5c-41.13,14.13-30.67,53.52-42.53,84.46-8.62,22.47-23.82,35.15-25.1,63.02-.46,9.9,4.58,14.32-1.86,24.03-2.16,3.26-18.11,18.74-21.08,19.04-5.71.58-11.62-6.29-19.93-6.26-17.19.07-28.36,12.44-53.44,9.65-23.96-2.67-39.85-20.93-58.42,2.69-30.88,39.28-56.14,89.36-85.9,130.1-7.46,9.63-.37,17.52.47,25.28.61,5.59-16.3,18.98-22.79,14.62-5.18-3.48-20.01-19.53-24.97-25.08-164.17-183.64-140.34-572.8,95.3-684.81,126.27-60.03,253.68-3.77,328.75,104.77-.77,2.44-4.25.55-5.98-.02-6.75-2.2-25.16-7.68-29.87-10.13-5.36-2.79-14.44-15.08-20.11-19.89-26.54-22.49-60.6-46.68-93.51-58.49-23.88-8.57-41.13-9.37-45.62,19.42-5.72,36.67-.91,98.82,1.18,137.02,1.07,19.53-3.54,33.38,9.05,50.95,7.75,10.82,26.65,18.98,36.92,29.08,11.58,11.39,18.62,33.7,39.43,25.51l74.51-38.45c-2.94,17.53.35,39.9-2.46,56.52-.51,3.04-10.5,32.13-11.76,34.24-2.18,3.65-6.01,5.65-9.77,7.23v-40ZM2109.66,178.75c-11.21,1.78-37.92,15.28-48.82,21.17-49.31,26.66-94.99,75.12-121.69,124.31-10.63,19.57-24.16,41.5-3.68,59.75,32.09,14.34,62.29,33,94,48,5.55,2.63,28.21,13.88,31.9,14.26,14.16,1.43,24.12-19.43,34.79-29,15.39-13.79,39.71-23.19,43.55-46.45,5.55-33.67,2.23-78.68,2.39-113.61.09-17.91,3.26-32.33-.13-51.7-3.76-21.52-8.37-30.54-32.31-26.73ZM2163.77,418.86c-111.66,10.54-126.15,208.59-24.32,247.14,93.83,35.52,146.06-85.55,124.63-162.63-12.19-43.85-50.89-89.18-100.31-84.51ZM1894.74,460.83c-2.99,3.03-5.48,14.1-6.31,18.69-16.2,89.4,5.01,211.73,51.41,290.09,14.02,23.68,24.9,27.35,41.96,3.28,28.3-39.92,53.05-87.2,79.02-128.98,7.17-23.82-9.31-44.43-12.08-67.2-1.09-9,.19-17.97-1.08-26.92-2.79-19.7-16.8-28.47-32.14-37.86-32.07-19.64-67.3-34.76-99.27-54.71-5.68-2.33-17.33-.61-21.51,3.62Z"/>
  <path class="cls-1"   d="M1746.18,610.27h5.99c4.06,23.61,1.91,49.25,4.26,72.76,2.23,22.42,12.93,46.02,13.73,70.26.55,16.61-10.14,52.81-7.08,63.07,1.89,6.33,20.3,31.36,25.48,38.54,33.05,45.92,55.63,69.2,116.71,65.45,111.67-6.84,194.68-112.99,236.89-207.26,1.55-3.04,10.58-2.54,10.17,2.13-34.44,110.82-123.5,216.67-244.88,230.93-2.57,8.21-4.65,8.26-12.82,9.56-100.9,16.03-174.63-88.17-253.96-114.94-24.73-8.35-44.78-8.8-70.5-6.52-3.61-9.45,12.64-13.43,19.92-15.09,77.85-17.7,150.41,37.5,207.47,82.72l36.63,22.35c-15.76-14.3-32.45-25.65-47.03-41.95-11.59-12.97-32.33-49.79-41.08-56.92-6.55-5.34-27.05-8.85-37.28-14.72-39.43-22.66-68.5-100.96-96.2-137.8-2.2-4.87,1.41-6.4,5.62-3.62,3.55,2.35,22.55,33.17,28.02,39.98,4.55,5.66,14.58,18.47,20.04,21.96,13.47,8.62,35.68,8.16,46.92,23.08,1.19-3.73-5.56-13.7-8.94-17.06-6.61-6.59-20.59-10.72-29.08-16.92-30.67-22.43-60.56-93.2-74.5-129.5-4.53-11.79-13.01-33.81-14.42-45.62-.4-3.4-.36-3.03,2.92-2.88l2.81.18c6.43,20.05,15.33,40.91,25.85,59.17,3.25,5.64,12.59,22.07,16.33,25.67,1.42,1.36,32.1,19.21,33.95,19.88,2.26.81,5.43-1.5,6.05-.88-1.79,5.06-1.34,6.74,3.02,9.98.94-23.63-26.19-28.84-39.84-46.16-27.78-35.27-50.29-143.14-53.25-188.75-.14-2.15-1.38-9.44,2.06-9.06,9.18,28.03,13.34,76.9,30.35,100.66,5.45,7.61,14.69,11.28,20.66,17.34,7.63,7.75,14.39,18.94,22.99,25.99-.69-26.19-23.47-36.68-35.58-57.4-6.37-10.89-9.29-22.78-13.47-34.53-2.24-41.01-10.9-82.17-12.91-123.09-.43-8.84-1.65-41.44.3-47.66.6-1.93,2.41-3.79,4.65-3.31,5.05,1.09,2.54,19.69,3.05,24.97,2.51,25.94,5.77,52.45,12.4,77.6l35.56,55.41c-2.4-7.2-.95-15.77-2.42-22.55-2.21-10.19-16.34-26.49-21.08-38.92-15.2-39.89-5.9-106.36-.22-149.26,3.33-25.18,9.17-50.3,13.77-75.25,5.15-5.16,4.17,10.83,4.05,13.07-2.21,40.17-17.98,85.59-.42,124.26l16.32,34.66c3.76-24.13-9.42-46.35-11.74-69.24-4.71-46.44,21.78-126.85,42.04-169.48,5.9-12.41,17-34.61,24.83-45.17,1.32-1.78,4.64-6.39,6.91-3.09-17.58,41.15-36.66,82.19-45.88,126.29l11.83,54.67c5.48-35.5,3.02-73.87,29.04-101.98,5.17-5.58,16.65-12.34,21.8-18.2,20.85-23.74,39.13-58.91,61.24-84.76,2.39-2.8,14.55-18.3,17.94-15.04l-60.35,100.63c-10.63,34.94-12.45,73.37-38.56,101.44-8.14,8.75-23.34,15.78-22.09,29.91,10.45-13.71,34.82-18.17,46.04-27.96,12.53-10.93,33.03-51.15,46.14-67.86,5.52-7.03,11.29-14.03,17.84-20.16,2.05.54,1.01,4.94.49,6.49-5.83,17.38-31.42,49.75-41.85,68.16-17.98,31.76-29.71,70.59-56.6,95.4-15.18,14-40.14,22.6-36.06,47.94,9.59-18.98,33.68-25.35,46.06-39.94s20.46-35.61,32.12-49.88c1.43-1.75,10.62-12.58,12.82-10.16.24,3.61-1.8,6.63-3.26,9.72-9.69,20.5-26.52,42.72-35.08,62.92-9.53,22.49-11.69,44-25.26,66.74-11.69,19.59-36.26,34.14-38.36,55.65-.21,2.12-1.57,9.33,1.95,8.95,11.35-25.34,32.55-38.87,46.78-64.23,6.58-11.73,15.16-37.84,23.53-46.47,2.68-2.76,2.86-4.19,7.71-3.27,3.13,2.91-28.65,69.32-31.41,79.57-5.66,21.04-4.31,41.07-12.54,63.46-9.81,26.69-31.34,45-32.06,73.94l35.1-54.9c10.13-19.04,13.52-46.99,22.47-65.53,1.42-2.94,5.19-6.74,6.43-1.47,2.46,10.5-14.85,58.06-17.47,72.42-4.36,23.88-.06,47.63-5.06,70.94-4.49,20.93-25.03,51.36-19.52,70.65.78,2.72.2,6.21,4.06,6.91-2.15-17.14,11.07-29.83,16.99-44.03,9.64-23.1,12.49-51.82,15.6-76.4.31-2.45.35-10.77,4.4-9.55,4.55,3.87,3.34,11.62,3.1,17.07-.87,20.34-6.39,43.98-6.23,63.94.13,15.7,6.57,33.37,6.26,50.03-.48,25.81-12.04,52.27-14.17,77.9l6.05,17.03c.6-8.08.99-18.38,2.9-26.11,2.86-11.59,15.12-31.71,15.12-42.88v-65ZM1708.2,204.27c21.98-20.17,30.65-51.41,35.96-80-28.31,15.67-34.47,50.44-35.96,80ZM1672.16,292.25c6.9-30.29,10.88-64.64-.98-94.01-8.28,26.36-10.35,54.96-4.03,82.04.75,3.21,1.38,11.03,5,11.96ZM1686.2,298.27c23.83-13.24,44.73-39.1,49.96-66-17.15-2.25-56.39,57.6-49.96,66ZM1654.18,402.27v-51c0-3.05-7.26-24.41-9.03-28.97-1.88-4.84-4.8-12.95-8.97-16.03v57c0,3.12,6.68,21.26,8.58,25.42,1.95,4.25,5.41,11.01,9.42,13.58ZM1712.18,328.28c-28.64,13.24-43.02,45.2-41.97,75.99,22.65-18.49,34.63-48.32,41.97-75.99ZM1652.16,514.27c.65-32.68-7.89-70.6-31.96-94-.75,33.64,6.27,70.22,31.96,94ZM1670.18,473.27c-1.45,10.68,1.05,23.98,0,35l15.52-25.48c7.17-18.79,12.66-37.35,14.51-57.5-2.21-3.3-5.53,1.35-7.06,2.94-8.63,9.03-21.32,32.82-22.97,45.03ZM1702.18,551.27c.99-9.85-.72-20.99,0-31-3,1.85-6.56,7.51-8.39,10.61-13.22,22.29-18.14,46.27-10.99,71.79.58,2.06.47,6.06,3.35,5.59,4.77-18.33,14.13-38.09,16.03-56.99ZM1668.17,618.26c-4.02-31.89-20.94-62.01-45.97-81.99,1.8,26.13,13.16,56.31,32.93,74.05,1.77,1.59,11.4,9.73,13.04,7.94ZM1714.16,704.26c8.7-28.2,10.28-56.8,6-85.99-3.29,1.49-6.2,8.19-7.54,11.43-9,21.9-11.46,45.71-3.01,68.13.95,2.53,1.2,5.87,4.55,6.43ZM1698.17,718.26c-6.65-29.1-27.06-59.5-55.98-69.98-3.78,4.02,15.98,35.91,20.03,40.95,3.08,3.82,32.76,32.41,35.95,29.03ZM1754.16,790.26c5.72-28.79,5.17-56.15-4.97-83.98-10.86,17.52-8.54,39.02-6.55,58.53l11.52,25.45ZM1738.16,808.27c-8.87-27.09-33.22-52.99-61.97-57.99,10.8,28.23,32.04,50.41,61.97,57.99ZM1808.18,926.25c-40.1-30.41-78.8-67.36-128-81.96,40.51,30.07,80.64,63.35,128,81.96Z"/>
  <path class="cls-1"   d="M2658.21,228.25l9.76-41.19c3.36-30.9-20.99-84.71-33.44-114.14-3.69-8.72-10.83-16.84-10.34-26.64,4.25-.92,4.54,2.17,6.34,4.64,30.82,42.52,71.59,156.71,67.62,208.32-1.97,25.54-15.95,50.3-11.95,77.02l17.5-39.47c9.45-23.29,6.76-49.06,4.47-73.51-.98-10.44-9.58-51.76-7.68-57.65.84-2.62,2.95-3.9,5.68-3.35,4.69,31.85,12.52,62.91,16,95,3.91,36.06,10.15,91.53-.56,125.42-7.32,23.15-29.2,39.12-25.41,65.56l12.36-22.61c28.76-26.72,29.63-59.56,33.61-96.39.95-8.79.16-28.69,2.27-35.73.43-1.41,1.75-2.25,2.74-3.22,2.54,0,4.74,17.04,4.98,20.98.84,13.77-.97,35.64-2,49.96-2.93,40.96-5.52,108.93-27.14,142.86-7.24,11.36-22.39,21.26-27.24,30.76-3.69,7.24-3.6,15.7-5.58,23.4,6.94-4.8,10.31-13.02,15.93-19.05,9.22-9.9,24.67-18.7,30.82-29.18,5.59-9.53,11.52-30.12,14.67-41.33,4.26-15.19,6.62-41.1,12.07-53.93,1.21-2.85.43-3.06,4.49-2.49,4.23,5.25-10.25,72.75-12.96,84.02-7.79,32.43-22,89.97-43.07,114.93-13.74,16.26-38.65,21.63-39.94,45.04,10.7-13.42,28.18-17.65,40.65-26.33,22.43-15.63,31.68-64.06,45.61-84.38,1.63-2.38,2.36-3.97,5.71-3.27,5.63,6.38-39.1,108.68-46.27,122.71-8.85,17.32-21.4,39.15-36.76,51.24-15.64,12.31-40.32,15.52-46.92,37.09-.32,1.03-.55,3.26.96,2.95,13.64-14.44,33.29-18,50.9-25.1l47.14-62.88c2.54-.2,4.74,1.29,4.12,4.07-1.41,6.25-13.52,25.5-17.54,32.52-14.94,26.09-50.66,89.76-74.21,103.79-13.1,7.8-25.59,7.83-36.82,13.18-9.51,4.54-25.55,36.68-32.53,47.47s-14.3,20.93-22.04,30.94l37.37-29.61c38.88-28.24,90.26-53.66,139.6-50.35,8.15.55,48.51,6.57,45.02,18.94-1.67,5.92-18.02-.6-23.03-.93-43.12-2.87-75.19,17.2-107.88,42.05-77.38,58.83-153.17,140.84-244.56,177.44-6.41,2.57-36.65,16.29-36.61,5.46l1.96-4.11c72.1-46.83,133.29-109.35,181.75-180.24,7.64-11.17,38.34-57.37,38.42-67.56.16-19.98-7.92-39.9-6.02-64.04,1.6-20.33,11.74-38.82,13.75-56.25,2.87-24.83-1.98-53.44,3.15-78.85,10.31-5.46,4.97,6.41,4.97,10.98,0,34.2,3.22,65.2,17.51,96.67l4.56,22.41c10.26-29.4-9.52-57.76-10.08-88.93-.31-17.11,6.4-36.27,6.28-52.05-.1-13.59-5.03-31.75-6.15-46.03-.35-4.51-2.27-32.01-1.76-33.62.81-2.58,3.04-3.9,5.72-3.35,6.23,27.82,6.58,58.18,18.6,84.41,6.55,14.3,18.2,26.33,19.44,43.57l4.11-16.95-16.16-41.02c-3.51-.07-.41,6.47-6.84,3.85-5.89-2.4-6.45-16.25-2.13-15.83,2.23.22,1.83,6.59,4.98,5.95-5.42-24.08-6.77-46.21-4.21-70.78l-21.77-85.19,6.93,2.05c11.37,38.29,24.31,73.13,49.07,104.93l7.97,17c5.41-25.24-13.27-38.15-23.07-57.9-14.38-28.99-13.65-56.52-22.35-85.65-7.42-24.86-23.15-48.03-28.58-73.42,3.12-3.4,6.18,2.38,7.66,4.34,13.12,17.35,19.63,43.53,32.7,61.3,11.68,15.89,31.55,26.65,37.68,47.33,3.58.46,1.93-4.48,1.72-6.72-2-21.85-11.59-21.71-23.69-36.33-21.92-26.5-31.76-56.34-41.06-88.94l-36.96-67.05c-1.62-5.48,5.12-2.76,8,0,14.08,13.53,23.96,44.73,38.97,59.03,12.61,12.02,33.3,16.57,42,34,5.27-22.83-18.52-30.57-32.06-41.94-23.78-19.98-28.67-42.2-42.61-67.39-19.11-34.53-40.92-67.38-60.28-101.75l-.09-3.89,3.98-1c10.53,15.2,22.75,29.94,33.67,45.35,7.69,10.84,20.6,36.45,28.27,43.73,9.76,9.26,37.44,15.01,47.11,28.89,1.28-16.79-18.48-26.31-28.03-37.97-23.72-28.95-19.2-60.72-31.24-90.76-8.39-20.92-32.15-54.53-44.91-75.09-5.74-9.25-14.42-17.52-16.82-28.16,2.93-3.04,21.71,20.38,23.94,23.04,18.46,21.97,32.77,49.01,50.09,69.91,8.19,9.87,19.73,16.24,28,26,24.74,29.18,21.44,63.59,27.98,99.03ZM2640.16,204.27c-.71-22.92-3.05-46.76-17.94-65.04-1.69-2.07-14.01-15.09-16.03-12.95,5.41,27.25,13.03,58.47,33.97,77.99ZM2676.2,294.27c3.36-.56,3.58-3.9,4.54-6.44,10.31-27.23,5.49-61.83-.58-89.56-3.72.85-4.06,4.97-5.01,7.97-8.93,28.27-3.95,59.58,1.05,88.03ZM2664.17,298.26c-6.46-27.54-23.98-56.46-51.97-65.99,8.16,26.49,25.15,55.35,51.97,65.99ZM2714.18,357.27c1.63-16.13-1.2-34.6,0-51-3.6.5-3.35,4.17-4.53,6.47-15.5,30.29-18.12,57.91-13.45,91.53,4.29,5.96,17.58-43.06,17.98-47ZM2680.16,404.27c-.34-30.02-14.46-61.89-41.96-76,5.51,28.13,18.96,58.2,41.96,76ZM2700.16,514.25c3.03-7.5,9.28-12.19,13.63-19.38,13.59-22.49,17.64-48.53,16.38-74.59l-19.63,27.34c-8.34,19.84-13.49,39.97-12.35,61.68.12,2.25-1.31,5.49,1.98,4.95ZM2680.18,506.27v-31c0-9.42-14.27-35.35-20.98-43.02-1.82-2.08-6.07-7.49-9.05-6.95,4.14,28.19,8.79,60.18,30.02,80.98ZM2648.18,520.27v41c0,8.73,13.19,37.29,17.01,46.99,10.53-31.33,2.75-62.61-17.01-87.99ZM2682.19,618.25c1.94,2.02,13.15-8.01,15.06-9.92,18.72-18.74,28.68-48.48,32.91-74.06-27.18,18.23-41.96,52.68-47.97,83.99ZM2638.16,704.25c10.14-28.62,10.86-64.95-7.96-89.98-2.58,26.92-4.06,53.59,2.96,80.02.68,2.58,1.91,9.6,5,9.96ZM2708.17,648.28c-28.23,10.93-50.47,40.41-55.98,69.98,28.59-11.34,49.13-40.77,55.98-69.98ZM2598.16,792.25c13.9-27.54,15.54-56.57,6-85.98-4.86,2.12-5.43,9.7-6.62,14.35-4.98,19.38-7.05,44.77-3.1,64.4.44,2.2.56,7.49,3.72,7.23ZM2676.18,750.29c-29.37,3.3-55.5,31.13-63.99,57.97,30.82-5.96,51.49-30.75,63.99-57.97ZM2670.18,844.29c-42.4,12.33-77,40.95-110.03,68.95l-97.97,95.01,74.94-54.04c43.78-37.38,87.22-75.06,133.06-109.92Z"/>
  <path class="cls-1"   d="M496.2,412.28c-3.77,10.01-5.09,42.09-14.5,46.5-6.25,2.93-13.22.22-18.46,7.54-25.35,35.36,62.53,33.25,78.03,32.02,61.77-4.87,27.54-55.15,21.21-92.63l24.74-27.42c3.64-1.55,5.27,7.37,6.01,9.96,11.46,40.25,21.89,129.38-17.16,156.9-23.75,16.74-90.45,18.56-114.54,2.79-11.48-7.52-19.33-22.48-22.43-35.57-1.17-4.95,1.06-17.04-3.93-16.13-18.97,15.04-35.93,33.08-57.64,44.37-34.84,18.11-106.07,31.73-128.95-9.73-4.32-7.83-5.05-15.28-9.39-22.57-27.79,56.17-155,64.46-197.95,31.91-48.94-37.09-28.48-102.54-21.05-153.96l18.14,5.35c-4.27,35.01-18.5,76.85,20.52,97,28.78,14.87,98.4,12.29,129.36,2.67,23.32-7.24,41.19-18.66,49.53-42.47,5.94-16.93.41-37.62,24.26-19.2-3.11,23.76-10.43,51.18,16.2,63.64,36.85,17.24,108.3-5.97,138.95-31.04,2.75-2.25,16.89-15.37,15.04-17.93-34.32-12.96-84.24-55.46-96.02,5.97l-17.74-9.35c.97-23.63,14.54-67.62,41.24-72.17,30.03-5.11,67.73,22.72,95.99,33.05,13.17,4.81,26.74,8.09,40.54,10.49Z"/>
  <path class="cls-1"   d="M1494.18,469.27c2.82,20.03,19.16,30.56,38.9,26.89,16.42-3.05,15.99-24.03,15.06-36.86-.99-13.67-12.83-47.16-11.59-55.63.58-3.94,18.66-20.81,22.62-23.41,2.02-1.33,1.49-3.21,4.04-.03,10.97,45.28,20.41,96.86,3.92,142-17.95,49.12-74.66,45.08-87.98-3.97l-16.9,27.1c-16.67,16.62-40.02,14.77-53.72-4.45-2.62-3.67-10.18-22.25-11.38-22.65-3.59-1.2-2.7,1.35-3.46,2.59-2.9,4.7-4.67,11.48-7.85,16.09-23.05,33.47-83.15,24.1-87.68-18.68-4.61-1.11-3.28.88-4.57,2.53-10.44,13.37-10.05,23.03-28.87,31.03-30.76,13.09-70.04,9.57-86.61-22.49-20.41-39.5-10.58-148.39-15.96-200.04-1.11-10.68-4.34-21.39-5.98-32l29.03-33.01,4.65,3.3,6.4,97.61c.07,31.54-5.2,66.75-2.06,98.06,3.09,30.81,27.18,38.15,54.75,34.8,40.42-4.91,37.54-39.28,37.49-71.51l18.77-8.24c4.36-.62,2.41.5,2.89,3.01,5.69,29.84-2.82,76.38,41.08,77.11,34.87.58,42.78-40.61,41.1-68.05,36.34-9.64,19.3,11.51,21.88,34.91,2.15,19.57,14.87,35.68,36.07,30.03,19.47-5.19,25.98-47.75,23.93-65.05h22.01c1.22,12.21-1.66,27.22,0,39.01Z"/>
  <path class="cls-1"   d="M906.17,262.28l6.09,90.91c2.53,33.63-4.74,68.88-2.15,102.15,3.47,44.65,29.28,47.23,68.08,38.91-11.56-29.59-11.26-54.48,1.62-83.35,4.59-10.29,18.82-21.11.59-24.86l14.76-49.72c51.26,29.67,123.13,62.97,130.46,129.51,3.68,33.35-9.17,67.86-25.81,96.1-5.86,3.45-74.01-24.47-84.7-29.62-28.56,24.24-91.92,40.9-116.61,4.64-24.88-36.55-15.09-154.92-20.34-205.66-1.24-12.03-3.66-24.12-5.99-35.99.32-3.16,23.74-26.78,27.99-30.04,2.01-1.54,2.54-3.88,6-2.98ZM1013.45,408.85c-27.63,2.72-32.41,62.66-1.81,68.95,44.1,9.07,39.53-72.66,1.81-68.95ZM1064.2,432.27c2.09,21.61-6.62,41.1-13.76,60.8,1.29,5.4,39.89,17.07,46.4,14.92,11.07-3.67,5.25-29.36,2.31-37.68-5.63-15.9-19.69-31.14-34.95-38.03Z"/>
  <path class="cls-1"   d="M2454.4,474.03l4.77,4.23,10.99-15.99c16.27,107.4,2.33,222.56-50.94,318.04-68.2,122.25-203.71,210.65-344.39,148.3-5.77-2.56-37.69-19.21-39.71-22.3s-.7-3.02.99-5.1c1.16-1.42,15.89-12.98,17.03-12.97,55.6,32.18,118.11,45,180.56,24.56,21.15-6.92,70.42-31.24,83.51-48.49,12.44-16.39-.47-33.98-9.38-48.69-16.55-27.3-37.86-52.26-54.7-79.46-2.42-6.83,18.74-24.28,23.14-30.96l34.46-.64c17.36,13.27,46.77,85.54,68.46,85.57,9.49.01,19.81-20.27,24.03-27.81,28.99-51.79,48.45-123.89,52.94-183.06,2.29-30.22-1.72-56.77-2.18-86-.08-4.95,1.65-8.38,2.18-12.98l-9.97,3.99c.34-3.39-.75-7.48.01-10.66.54-2.23,5.41.25,3.19-5.49-3.12-8.04-11.18-9.9-17.17-14.84l27.94-41c6.16,24.39,11.43,40.38-5.76,61.76Z"/>
  <path class="cls-1"   d="M1626.18,756.27v14H.18c.14-4.86-1.52-10.76,3-14h1623Z"/>
  <path class="cls-1"   d="M674.19,444.26c4.54-.52,18.56,2.87,19.78,7.31-10.4,53.19-28.65,137.1,51.2,138.83,17.37.38,56.59-10.7,67.86-24.29,19.79-23.87-6.3-97.65-10.89-126.75l28.03-29.1c11.32,60.96,31.14,143.35-3.14,199.84-22.15,36.5-77.37,48.84-116.22,34.54-72.96-26.86-50.07-142.56-36.62-200.39Z"/>
  <path class="cls-1"   d="M584.18,924.27c21.46-20.93,57.28-21.07,69.73,9.27,2.13,5.19,6.27,20.89,6.27,25.73v103h-24.01c-3.96-30.49,8.64-104.1-8.91-128.08-12.29-16.79-32.76-9.35-41.04,7.12l-.32,117.68-3,3-20.84-.59c-4.83-4.82-.07-11.44-.06-16.34.09-45.97-.27-93.34-1.91-139.7-.63-17.87,6.37-43.37-18.64-45.11-7.45-11.4,24.95-8.9,30.82-7.07,4.97,1.55,11.9,11.77,11.9,16.1v55Z"/>
  <path class="cls-1"   d="M326.18,1052.27v63c0,.5,2.36,1.59,1.16,3.02-1.93,2.81-16.33,2.68-20.15,1.97-8.93-1.66-3.1-10.42-2.92-16.91,1.36-46.73,4.1-112.74-.13-158.05-.5-5.31-2.36-15.83-5.85-19.59-4.37-4.71-19.44-2.63-16.09-10.43,2.59-6.03,44.37-6.14,42.01,10.98,12.84-13.47,23.56-18.47,42.8-15.82,33.7,4.66,40.8,59.81,39.27,86.91-2.63,46.49-32.14,89.56-80.1,54.91ZM345.64,924.73c-8.22,1.68-14.79,8.88-17.26,16.73-4.36,13.84-3.36,61.45-2.18,77.79.96,13.21,1.04,26.1,15.91,30.07,41.62,11.12,40.13-56.94,38.04-82.02-1.66-19.86-9.03-47.78-34.52-42.57Z"/>
  <path class="cls-1"   d="M1450.18,924.27c18.45-19.5,53.23-21.72,66.37,4.63,7.4,14.85,8.89,37.65,9.72,54.28,1.26,25.5-.37,51.83-.96,77.21-2.05,2.94-23.15,3.78-24.85-1.41-2.87-32.74,2.89-69.46-.3-101.7-2.17-21.99-16.18-43.68-39.88-27.92-2.31,1.54-10.1,9.94-10.1,11.9v121h-24v-181c0-10.46-8.18-22.87-19.89-21.13l-.11-7.87h31c4.66,0,13,18.22,13,23v49Z"/>
  <path class="cls-1"   d="M1052.18,976.27v86h-24v-181c0-12.28-9.11-22.58-22.01-21.01l1.97-7.03c49.9-1.08,124.54-13.96,128.01,56.07,2.59,52.34-35.01,76.81-83.97,66.97ZM1052.18,964.27c35.39,4.38,57.84-12.65,58.07-49.09.22-34.15-24.07-62.16-58.07-43.91v93Z"/>
  <path class="cls-1"   d="M128.2,916.26c-2.37-9.97-2.27-18.95-6.29-28.72-15.48-37.66-70.88-37.6-67.81,7.82,3.22,47.6,92.67,50.43,88.14,119.99-2.48,38.02-29.37,53.98-65.14,50.99-17.58-1.47-42.08-13.07-46.47-31.53-1.73-7.26-7.67-46.23,5.55-39.26,3.81,33.21,18.64,61.8,56.82,56.53,30.72-4.24,31.31-41.08,13.23-60.87-31.57-34.54-82.03-39.74-73.88-101.78,6.18-47.08,73.74-57.38,96.69-23.03,6.2,9.28,7.12,33.9,5.13,44.85-.62,3.43-2.12,5.61-5.97,5Z"/>
  <path class="cls-1"   d="M1322.18,984.27l49.92-67.08c4.23-5.44,27.32-8.81,24.06,2.06-.39,1.3-13.61,5.84-17.96,10.05s-28.04,36.79-30.2,41.83c-.91,2.12-2.02,3.04-1.86,5.96.31,5.79,30.8,56.69,36.37,63.83,7.73,9.91,15.44,9.74,21.61,18.36-42.47,23.17-57.97-37.27-75.8-63.78l-6.15-1.23v68h-24v-185c0-7.65-11.07-19.38-19.89-17.13l-.11-7.87h29c5.83,0,15,15.66,15,21v111Z"/>
  <path class="cls-1"   d="M922.18,1062.27h-24v-105c0-3.9-6.23-21.39-9.08-24.92-7.53-9.36-21.97-9.71-31.62-3.78-2.34,1.44-11.3,11.66-11.3,12.7v121h-24v-125c0-1.13-4.61-10.72-6.04-11.96-4.98-4.35-23.93-1.71-12.64-12.7,16.58.39,33.44-3.8,41.68,13.63,21.91-25.71,63.09-21.96,73.64,12.4.62,2.01,3.36,13.67,3.36,14.64v109Z"/>
  <path class="cls-1"   d="M1197.64,910.72c88.05-17.86,90.61,154.33,13.45,155.6-72.35,1.19-73.53-143.41-13.45-155.6ZM1225.49,930.96c-8.9-9.57-19.32-11.05-29.41-1.8-21.37,19.6-20.85,94.34-.99,115.2,11.08,11.64,25.76,8.61,34-4.19,15.4-23.91,16.31-87.79-3.6-109.22Z"/>
  <path class="cls-1"   d="M760.18,972.26c1.62-22.24-10.13-61.97-39.39-46.38-15.56,8.29-7,30.07-24.73,21.24-4.26-34.89,24.58-40.53,52.95-36.67,19.51,2.65,29.28,21.86,32.66,39.34,2.26,11.71,4.83,106.08,1.64,110.61-11.03,6.49-16.56-1.83-22.18-10.12-15.02,11.44-27.91,19.52-47.37,13.43-31.24-9.77-34.53-58.1-10.52-77.37,17.32-13.91,36.1-11.47,56.95-14.06ZM760.18,986.27c-11.61.6-29.9,2.27-38.71,10.29-18.67,17.03-8.37,63.94,21.86,51.85,8.39-3.36,16.84-16.4,16.84-25.14v-37Z"/>
  <path class="cls-1"   d="M524.18,1062.27c-10.93,1.91-16.24-3.03-21.04-12.05-30.88,27.55-75.13,16.34-75.13-28.95,0-37.79,36.68-49.93,68.89-47.28l3-3c8.44-41.96-34.48-72.33-51.59-23.6l-12.14.88c-7.06-44.83,59.98-50.86,78.39-21.39,3.09,4.94,9.62,23.41,9.62,28.38v107ZM500.18,986.27c-23.18,1.11-45.59,5.22-46.14,32.97-.34,17.21,6.47,34.73,26.68,30.57,7.73-1.59,19.46-12.82,19.46-20.55v-43Z"/>
  <path class="cls-1"   d="M192.18,992.27c.26,16.01,3.96,47.11,19.87,55.13,12.03,6.06,24.64,5.57,35.15-3.1,6.72-5.54,13.82-27.76,20.17-11.93-28.56,56.53-89.6,36.77-98.99-21.31-4.97-30.76,1.45-95.11,40.97-100.62,41.1-5.73,58.23,23.99,60.79,60.85.44,6.4,1.72,16.51-2.97,20.97h-75ZM244.18,978.27c3.7-73.08-54.14-71.26-52,0h52Z"/>
  <path class="cls-1"   d="M1620.18,926.27h-30v111c0,12.84,16.6,16.62,27.41,11.39,3.4-1.65,8.73-9.59,10.47-3.25,5.19,18.91-35.03,23.22-48.54,14.52-4.69-3.02-13.34-15.88-13.34-20.66v-113h-18.01s0-14.01,0-14.01h18c-6.26-13.67.92-48.43,19.16-47.94,1.85.05,4.85,1.8,4.85,2.95v42c0,.26-3.66,4.4,1.03,5s21.17-5.29,27.1-1.13l1.87,13.13Z"/>
  <path class="cls-1"   d="M2402.18,365.27c-1.48,8.41-10.97,14.24-17.92,18.08-20.53,11.37-45.41,19.02-65.1,32.9l-2.96-5.98c3.16,8.14-24.14,19.95-26.01,17.98.61-25.54,24.7-38.53,34.35-62.63,6.24-15.59,6.37-33.52,14.67-47.34,4.92-.88,2.99,3.68,2.5,6.5-4.41,25.4-17.41,53.54-21.51,79.47l20.96-30.01c21.21-16.82,39.26-33.89,49.06-59.97l3.98,1c2.59,19.88-22.95,36.65-34.02,49.98-1.87,2.25-4.85,3.24-3.99,6.99,2.84,2.83,29.65-21.01,32.78-24.2,4.14-4.23,6.74-13.35,13.21-13.79-1.15,9.44,1.58,22.06,0,31Z"/>
  <path class="cls-1"   d="M2422.2,452.27l2-72.98c4.45-17.92,8.24-37.24,5.81-55.85-1.04-7.96-7.04-15.39-6.81-23.19,49.64,37.01,40.35,112.03-1,152.02Z"/>
  <path class="cls-1"   d="M2166.16,846.25c-4.71-1.47-1.06-11.93-.08-15.09,11.7-37.76,39.58-80.81,65.08-110.92,3.96-4.68,22.71-26.13,25.93-28.08,8.04-4.86,12.02,3.1,10.17,10.03-37.48,43.88-82.58,88.13-101.09,144.06Z"/>
  <path class="cls-1"   d="M2406.17,394.27c7.59,32.08,10.27,67.93-11.41,95.47-1.28,1.62.05,3.66-4.56,2.53-3.1-17.24-6.16-37.3-3.85-54.83.83-6.33,10.94-34.36,14.31-39.69,1.57-2.48,1.85-4.23,5.51-3.47Z"/>
  <path class="cls-1"   d="M750.15,434.26c-2.8.66-3.28-.42-5.01-1.94-1.89-1.65-18.85-23.56-19.01-25.13-.67-6.48,15.16-26.17,19.13-32.92,3.79-.93,22.82,22.41,22.8,27.01l-17.91,32.98Z"/>
  <path class="cls-1"   d="M2243.64,348.72c4.48-.92,34.68-.46,34.5,4.54-19.16,10.4-31.18,24.77-42.94,42.61-30.81-8.41-12.34-42.89,8.43-47.15Z"/>
  <path class="cls-1"   d="M375.41,270.36c3.94-.81,20.64,22.34,20.65,26.89-2.21,5.7-12.96,31.15-18.87,31.15l-22.34-27.14,20.56-30.9Z"/>
  <path class="cls-1"   d="M167.94,404.01c-2.71,1.1-4.78.06-6.9-1.61-1.78-1.4-18.31-21.82-18.46-23.45l17.67-30.64c4.34-3.07,22.87,19.75,23.98,25.1l-16.3,30.6Z"/>
  <path class="cls-1"   d="M109.46,350.42c3.11-.53,20.71,20.42,20.93,24.85.3,5.97-16.03,31.95-21,30.9-4.51-5.67-19.06-20.19-19.08-26.89-.01-4.41,15.34-28.21,19.14-28.86Z"/>
  <path class="cls-1"   d="M2428.17,514.28c-7.75,25.78-29.3,49.96-57.98,49.98,5.33-27.16,30.45-48.4,57.98-49.98Z"/>
  <path class="cls-1"   d="M2390.17,594.28c-3.6,16.9-28.8,36.68-45.46,39.5-23.42,3.96-16.6-7.62-5.58-19.56,13.1-14.18,31.8-20.71,51.04-19.94Z"/>
  <path class="cls-1"   d="M2390.19,518.26c4.28-15.12,35.22-56.69,51.02-55.93,5.6.27-.34,6.24-.31,6.88.07,1.71,3.52,4.32,3.44,9.95-.12,7.74-5.58,18.08-12.72,21.54l-41.42,17.56Z"/>
  <path class="cls-1"   d="M2324.17,522.28c2.59,2.83-9.18,24.83-10.91,30.07-8.96,27.11-7.91,52.74-5.13,80.88-2.34,6-11.5,16.57-11.01,5.05,1.09-25.59-4.63-83.38,9.04-103.02,1.74-2.51,15.44-15.77,18-12.98Z"/>
  <path class="cls-1"   d="M524.14,648.25c-3.62,2.5-19.78-20.76-22.03-25.06l17.14-30.93c4.05-.99,20.6,20.16,20.92,25.14.5,7.72-13.53,22.72-16.03,30.84Z"/>
  <path class="cls-1"   d="M571.41,588.36c4.11-.71,20.63,20.13,20.63,24.89,0,3.17-14.7,30.99-16.85,30.98-5.41-5.93-21.22-19.22-21.21-26.95,0-3.86,14.75-28.45,17.44-28.92Z"/>
  <path class="cls-1"   d="M1289.18,588.31c5.47,5.59,18.47,17.12,18.99,25.09.33,4.98-12.02,28.98-16.97,28.98-4.55,0-20.86-20.82-21.07-25.3l19.04-28.77Z"/>
  <path class="cls-1"   d="M553.95,702.02c-5.57,2.32-22.93-19.84-23.46-23.2-.96-6.14,13.26-24.05,16.73-30.56,3.65-.86,20.32,18.35,20.98,23.17,1.35,9.8-11.01,21.68-14.25,30.59Z"/>
  <path class="cls-1"   d="M1265.18,648.31l20.58,25.26c-1.58,5.64-13.82,28.85-18.58,28.83-5.02-4.42-21.11-19.33-20.92-25.15.08-2.39,16.83-28.95,18.92-28.94Z"/>
  <polygon class="cls-1" points="1235.22 592.27 1256.14 617.2 1237.18 648.21 1216.51 622.9 1235.22 592.27"/>
  <path class="cls-1"   d="M2323.78,664.85c7.06-.55,13.11-1.8,18.36,4.42-12.94,18.85-42.27,35.58-63.92,22.01,8.95-17.71,26.44-24.94,45.55-26.43Z"/>
  <path class="cls-1"   d="M2378.16,492.27c-4-.77-3.28-4.22-3.98-7-2.49-9.8-6.78-28.64-7.79-38.21-.89-8.41-1.68-34.41-.24-41.82,1.41-7.24,17.57-7.66,23.04-12.92,3.03,2.4,3.04,2.48,2.12,6.04-1.73,6.7-7.63,15.98-9.7,24.34-1.29,5.21-2.91,11.33-3.4,16.6-1.67,17.92,3.04,35.52-.05,52.97Z"/>
  <path class="cls-1"   d="M2258.19,338.24c8.61-21.61,43.11-30.91,61.96-16.98-18.64,18.71-35.67,26.19-61.96,16.98Z"/>
  <path class="cls-1"   d="M2420.17,358.27c-4.89.62-3.18-.01-4.2-2.8-3.99-10.92-5.61-22.06-10.71-33.29-7.69-16.94-20.3-32.87-31.08-47.9,35.76,10.75,55.62,47.2,45.99,83.98Z"/>
  <path class="cls-1"   d="M2316.19,280.3c25.18-11.42,45.82-11.67,61.95,12.97.19,4.43-26.36,5-30.45,4.47-4.54-.58-36.44-10.69-31.5-17.44Z"/>
  <path class="cls-1"   d="M2330.16,540.27c6.58,26.62,6.91,50.91-7.83,74.77l-6.14,1.25c-4.43-24.21-1.57-51.16,9.81-73.16,1.07-2.06-1.06-3.79,4.16-2.85Z"/>
  <path class="cls-1"   d="M2338.19,360.26c3.17-18.13,12.03-40.6,28.08-50.9,3.12-2,18.95-9.07,17.05-1.01-10.64,20.3-20.43,46.21-45.13,51.91Z"/>
  <path class="cls-1"   d="M2364.16,472.27c9.3,25.69,12.41,54.93-4.98,77.96-6.55-9.34-7.39-23.71-6.97-34.95.12-3.28,7.08-46.82,11.95-43.01Z"/>
  <path class="cls-1"   d="M2268.18,649.27c1.87-14.86,11.14-30.05,18.04-42.99,5.33-.55,3.2-.03,3.92,2.98,4.91,20.48-2.51,51.69-16.29,67.67-1.79,2.08-1.92,4.18-5.67,3.33.88-9.85-1.21-21.41,0-31Z"/>
  <path class="cls-1"   d="M2324.17,330.28c-.8,24.69-12.19,52.48-31.97,67.99-4.65-3.55,1.81-30.39,4.51-36.46,1.47-3.31,23.42-36.39,27.46-31.52Z"/>
  <path class="cls-1"   d="M2372.17,632.28c3.76,9.44-9.31,23.45-17.51,25.55-9.41,2.41-34.7-4.75-46.48-1.58,7.2-19.4,20.74-12.27,36.48-14.5,10.52-1.49,17.36-8.39,27.51-9.47Z"/>
  <path class="cls-1"   d="M2282.17,362.28c.94,10.48-20.27,57.21-34.12,47.14-11.74-8.53,20.35-50,34.12-47.14Z"/>
  <path class="cls-1"   d="M2352.2,592.26c2.43-18.91,16.42-15.52,29.59-19.39,9.81-2.89,18.98-6.34,27.42-12.13l4.84,4.8c-13.59,27.45-38.23,17.2-61.85,26.72Z"/>
  <path class="cls-1"   d="M2284.17,392.28c1.44,5.13-3.65,44.1-7.05,44.04-9.48-1.77-12.61-11.16-18.85-17.05,3.62-4.29,8.33-7.69,11.87-12.05,1.67-2.06,10.83-18.56,14.03-14.95Z"/>
  <path class="cls-1"   d="M2342.2,580.27c-.3-11.79-.69-25.17-2.22-36.8-1.78-13.52-13.36-26.53,4.18-33.2-3.06,21.38,16.32,54.91-1.96,70Z"/>
  <path class="cls-1"   d="M2163.71,428.76c72.26-7.61,107.43,88.82,93.87,147.91-26.52,115.61-156.94,109.67-176.85-5.96-9.64-55.98,18.94-135.2,82.97-141.95ZM2155.66,448.74c-79.64,13.43-81.34,176.61-3.59,192.64,121.9,25.14,124.95-213.1,3.59-192.64Z"/>
</svg>