<?xml version="1.0" encoding="UTF-8"?>
<svg id="Layer_1" xmlns="http://www.w3.org/2000/svg" version="1.1" viewBox="0 0 891.84 913.67">
  <!-- Generator: Adobe Illustrator 29.6.1, SVG Export Plug-In . SVG Version: 2.1.1 Build 9)  -->
   <!-- <defs>
    <style id="color">
       <feColorMatrix in=""
        type=""
        values="#ff0000ff"/>
      
    </style>
  </defs> -->
  <path fill="currentColor" d="M241.8,45.76c-105.31,14.02-187.96,95.28-201.71,198.34-1.19,9.26-1.38,35.32-1.38,210.11,0,133.73.28,202.39,1.01,208.23,3.4,31.09,16.73,68.57,33.91,95.44,18.56,29.12,47.6,57.43,76.46,74.41,20.68,12.22,49.17,23.37,72.42,28.4,24.35,5.21,15.07,5.03,226.07,5.03,169,0,195.19-.18,204.66-1.35,58.35-7.46,112.85-36.22,149.79-79.08,16.27-18.87,32.62-46.28,41.17-69.11,4.94-13.68,8.81-27.71,11.58-41.97l2.21-11.14.28-106.49c.09-58.59,0-107.39-.28-108.47-.55-1.44-1.63-2.62-3.03-3.33-2.39-1.26-2.94-1.17-5.79.54-10.38,6.2-43.38,37.39-59.27,55.99-12.59,14.92-24.17,30.2-48.61,64.26-11.49,16.09-24.44,33.88-28.76,39.54-47.42,62.55-107.52,119.62-155.95,148.01-38.78,22.83-75.91,32.89-125.62,34.15-102.92,2.61-187.65-34.6-232.68-102.27-31.61-47.54-43.1-114.4-32.62-188.64,10.2-71.54,41.35-142.98,89.97-206.25,59.37-77.2,138.67-134.08,212.28-152.33,69.75-17.34,133.25-4.58,180.12,36.22,16.54,14.38,29.41,31.18,39.61,51.41,13.97,27.86,19.02,53.47,18.01,91.04-.92,35.59-7.08,61.83-20.49,87.35-8,15.19-16.27,26.24-28.86,38.64-23.43,23.01-50.91,39.27-108.44,64.26-42,18.15-66.17,30.47-85.92,43.68-36.76,24.53-60.1,52.48-71.96,86.18-3.68,10.42-7.54,26.69-7.54,31.63v2.61l-4.32-2.88c-6.52-4.31-20.31-18.33-25.18-25.52-9.24-13.32-15.33-28.48-17.83-44.4-2.39-13.57-1.56-37.48,1.75-49.97,4.32-17.08,11.4-30.29,23.16-43.95,9.1-10.6,9.01-11.86-.64-18.15-11.17-7.03-18.97-18.18-21.6-30.91-2.02-9.26-1.38-26.42,1.38-36.85,5.24-19.59,17.55-37.3,33.27-47.72,8.45-5.57,8.18-5.66,8.18,2.52,0,18.96,11.49,41.43,26.83,52.93,8.18,5.66,17.28,9.92,26.93,12.58,8.91,2.34,45.03,2.34,62.03,0,36.94-4.94,69.57-14.38,99.71-28.85,18.2-8.72,29.32-16,40.07-26.51,7.08-6.83,9.47-9.98,12.41-15.73,3.31-6.47,3.58-7.73,3.58-14.38-.09-6.11-.46-8.09-2.94-13.12-10.2-21.39-33.17-41.7-60.19-53.11-53.85-22.74-106.69-20.31-181.22,8.54-72.23,27.86-135.27,80.16-157.79,130.94-8.64,19.59-12.77,37.83-12.77,56.71s3.31,32.44,11.49,48.98c7.54,15.28,22.97,32.8,37.95,43.05l6.62,4.49-.55,9.44c-2.57,45.65,31.25,95.08,81.05,118.72,10.29,4.85,26.47,10.42,32.81,11.23,3.58.54,4.5.27,6.43-1.62s2.21-2.97,2.76-15.19c.78-20.22,5.98-40.05,15.25-58.15l4.59-8.9,7.35,2.07c19.02,5.39,33.45,7.01,56.52,6.38,13.6-.36,20.4-.99,30.05-2.79,36.48-6.74,72.32-22.29,104.67-45.29,26.56-18.96,47.42-38.46,95.11-88.7,33.73-35.68,53.48-55,71.22-70.01,12.87-10.78,34.83-26.96,47.51-35.05,6.25-3.95,9.65-6.65,9.92-8,.37-1.08.37-34.78.18-74.77-.37-80.16-.18-77.2-6.62-101.91-8.27-32.08-26.19-66.32-48.06-91.76-34.46-40.26-83.63-67.85-139.87-78.37l-10.57-1.98-200.8-.18c-170.01-.18-202.27,0-210.44,1.08Z"/>
  <path fill="currentColor" d="M844.46,463.21l3.03-2.07-.37,96.88c-.36,105.51-.27,103.62-5.78,127.97-8.46,37.12-28.22,72.98-55.69,101.11-39.43,40.35-89.97,63.26-148.05,66.95-10.11.72-74.53.9-199.6.72-164.77-.36-185.73-.54-194.36-1.8-43.1-6.56-74.26-19.23-107.98-44.13-8.73-6.47-30.33-27.32-37.41-36.12-23.71-29.57-39.33-64.17-45.21-100.03-3.22-19.68-3.4-31.9-3.12-226.65.36-176.95.46-192.68,1.93-202.2,6.15-39.1,19.57-71.36,42.54-101.56,9.19-12.13,32.08-34.51,44.48-43.49,33.56-24.58,73.54-39.37,115.33-42.69,14.34-1.17,372.65-1.17,387.44,0,52.66,4.04,99.89,24.8,137.39,60.3,31.06,29.48,53.21,67.67,62.31,107.66,5.23,23.1,5.33,25.71,5.78,97.6l.46,66.69-12.31,8.17c-36.85,24.54-65.06,49.88-117.63,105.69-28.58,30.29-55.32,56.62-69.2,67.94-39.51,32.53-78.11,51.5-120.75,59.49-9.28,1.71-13.69,1.98-34.09,1.98-25.37,0-34.01-1.08-51.01-6.29-9.19-2.79-11.02-2.79-13.78-.09-3.22,3.15-13.51,24.45-17.37,35.77-3.96,12.02-6.49,24.44-7.54,37.03l-.64,8.62-2.39-.54c-11.21-2.6-32.71-13.21-45.21-22.37-10.2-7.46-25.73-23.28-32.26-32.9-14.61-21.3-21.41-46.19-18.38-67.22.65-4.31.65-7.28.09-8.27-.55-.98-4.87-4.49-9.83-8.08-10.84-7.82-23.98-20.67-29.68-29.12-12.78-18.87-17.09-34.87-16.18-60.48.37-11.78.92-15.82,3.22-24.54,7.63-28.76,21.32-50.42,48.8-77.2,24.54-23.9,50.08-41.79,81.88-57.42,51.74-25.35,104.12-38.2,143.36-35.23,38.04,2.96,70.58,15.73,92.45,36.22,18.93,17.79,25.09,31.36,19.48,42.86-2.57,5.4-17.55,19.86-26.37,25.62-34.93,22.73-87.12,37.92-140.24,40.89-25.73,1.43-41.26-1.26-53.67-9.26-11.76-7.73-21.32-21.03-24.44-34.24-1.75-7.01-1.93-20.31-.46-25.7.82-2.97.73-4.05-.46-5.84-2.21-3.24-4.96-3.42-11.86-.72-17.55,6.83-34.55,22.28-44.2,40.17-20.4,37.83-15.25,79.17,12.32,99.66l3.12,2.34-3.68,4.4c-12.4,14.56-22.14,36.13-25.45,56.53-1.93,11.77-1.93,31.64,0,42.69,1.93,11.05,7.53,27.68,12.96,37.83,8.8,16.44,21.42,30.63,36.85,41.43,9.46,6.65,12.31,8,15.34,7.28,3.31-.81,4.69-4.13,5.43-12.94,2.94-35.59,20.86-69.11,50.72-94.72,24.54-21.03,52.02-36.67,106.51-60.3,51.92-22.56,73.98-34.51,96.86-52.4,37.77-29.47,59.55-67.94,67.64-119.7,2.02-12.76,2.85-45.48,1.47-58.51-8.64-81.96-63.23-143.88-143.91-163.11-25.18-6.02-58.73-6.65-86.85-1.62-121.58,21.48-248.12,134.9-304.64,273.12-35.47,86.63-41.44,176.41-16.45,247.68,27.94,79.71,94.48,132.1,191.06,150.35,36.76,6.92,80.13,7.73,114.78,2.24,63.13-10.06,114.14-39.18,178.83-102.36,37.04-36.13,57.44-60.66,100.63-120.87,23.06-32.18,35.75-48.98,48.34-63.81,7.99-9.53,40.52-41.7,45.67-45.29Z"/>
</svg>